<svg xmlns="http://www.w3.org/2000/svg" width="96" height="128" viewBox="0 0 96 128" fill="none">
  <defs>
    <linearGradient id="g" x1="18" y1="18" x2="78" y2="106" gradientUnits="userSpaceOnUse">
      <stop stop-color="#8ff8ff"/>
      <stop offset="1" stop-color="#5ed4f1"/>
    </linearGradient>
  </defs>
  <ellipse cx="48" cy="104" rx="30" ry="10" fill="#06101b" opacity="0.25"/>
  <rect x="18" y="20" width="60" height="88" rx="28" fill="url(#g)" stroke="#163b12" stroke-width="4"/>
  <rect x="40" y="20" width="16" height="88" rx="10" fill="#ffffff" opacity="0.12"/>
  <ellipse cx="48" cy="14" rx="9" ry="12" fill="#d0fdff"/>
  <ellipse cx="39" cy="9" rx="6" ry="10" transform="rotate(-24 39 9)" fill="#8ff1ff"/>
  <ellipse cx="57" cy="9" rx="6" ry="10" transform="rotate(24 57 9)" fill="#8ff1ff"/>
  <circle cx="30" cy="20" r="3" fill="#ffffff" opacity="0.7"/><circle cx="48" cy="16" r="2" fill="#ffffff" opacity="0.7"/>
  <circle cx="37" cy="47" r="5" fill="#17331a"/>
  <circle cx="59" cy="47" r="5" fill="#17331a"/>
  <circle cx="35.7" cy="45.8" r="1.5" fill="#f3fff2"/>
  <circle cx="57.7" cy="45.8" r="1.5" fill="#f3fff2"/>
  <path d="M36 65c4 6 20 6 24 0" stroke="#17331a" stroke-width="4" stroke-linecap="round"/>
  <text x="48" y="122" text-anchor="middle" fill="#dff7ff" font-family="Arial, sans-serif" font-size="12">Ice</text>
</svg>