<svg xmlns="http://www.w3.org/2000/svg" width="220" height="260" viewBox="0 0 220 260">
<rect width="220" height="260" rx="28" fill="#08111f"/>
<ellipse cx="110" cy="40" rx="22" ry="14" fill="#cba8ff"/>
<ellipse cx="95" cy="22" rx="12" ry="20" transform="rotate(-28 95 22)" fill="#8f63ff"/>
<ellipse cx="125" cy="22" rx="12" ry="20" transform="rotate(28 125 22)" fill="#8f63ff"/>
<rect x="74" y="52" width="72" height="132" rx="36" fill="#8ff26b"/>
<rect x="100" y="52" width="18" height="132" rx="9" fill="#5ec63f"/>
<rect x="68" y="88" width="84" height="20" rx="10" fill="#5b3cc4"/>
<path d="M148 96l22 10-22 12z" fill="#5b3cc4"/>
<circle cx="96" cy="100" r="6" fill="#18391c"/>
<circle cx="124" cy="100" r="6" fill="#18391c"/>
<path d="M92 135c12 16 24 16 36 0" fill="none" stroke="#18391c" stroke-width="6" stroke-linecap="round"/>
<text x="110" y="228" fill="#eff6ff" font-family="Arial, sans-serif" font-size="22" text-anchor="middle">Ninja</text>
</svg>
